<svg width="12" height="21" viewBox="0 0 12 21" fill="none" xmlns="http://www.w3.org/2000/svg">
<path d="M8.47488 9.61719L4.09894 8.38281C3.59247 8.24219 3.23996 7.78516 3.23996 7.27734C3.23996 6.64062 3.7748 6.125 4.43524 6.125H7.12158C7.6159 6.125 8.10212 6.26953 8.5073 6.53516C8.75446 6.69531 9.0867 6.65625 9.2974 6.45703L10.7074 5.12891C10.9951 4.85938 10.9546 4.41016 10.6345 4.17188C9.6418 3.42188 8.40195 3.00391 7.12969 3V1.125C7.12969 0.78125 6.83796 0.5 6.4814 0.5H5.18482C4.82827 0.5 4.53654 0.78125 4.53654 1.125V3H4.43524C1.85425 3 -0.220273 5.13672 0.0187829 7.67188C0.188958 9.47266 1.61519 10.9375 3.41419 11.4453L7.56728 12.6172C8.07375 12.7617 8.42626 13.2148 8.42626 13.7227C8.42626 14.3594 7.89142 14.875 7.23098 14.875H4.54464C4.05032 14.875 3.5641 14.7305 3.15893 14.4648C2.91177 14.3047 2.57952 14.3438 2.36882 14.543L0.9588 15.8711C0.671122 16.1406 0.71164 16.5898 1.03173 16.8281C2.02442 17.5781 3.26427 17.9961 4.53654 18V19.875C4.53654 20.2188 4.82827 20.5 5.18482 20.5H6.4814C6.83796 20.5 7.12969 20.2188 7.12969 19.875V17.9922C9.01782 17.957 10.7885 16.875 11.4124 15.1523C12.2836 12.7461 10.8209 10.2773 8.47488 9.61719Z" fill="white"/>
</svg>
