<svg width="26" height="8" viewBox="0 0 26 8" fill="none" xmlns="http://www.w3.org/2000/svg">
<path d="M16.9624 4C16.9624 6.00658 15.3394 7.63 13.3334 7.63C11.3273 7.63 9.70434 6.00658 9.70434 4C9.70434 1.99341 11.3273 0.369995 13.3334 0.369995C15.3394 0.369995 16.9624 1.99341 16.9624 4ZM22.2043 0.369995C20.1983 0.369995 18.5753 1.99341 18.5753 4C18.5753 6.00658 20.1983 7.63 22.2043 7.63C24.2104 7.63 25.8334 6.00658 25.8334 4C25.8334 1.99341 24.2104 0.369995 22.2043 0.369995ZM4.46241 0.369995C2.45636 0.369995 0.833374 1.99341 0.833374 4C0.833374 6.00658 2.45636 7.63 4.46241 7.63C6.46845 7.63 8.09144 6.00658 8.09144 4C8.09144 1.99341 6.46845 0.369995 4.46241 0.369995Z" fill="white"/>
</svg>
