<svg width="26" height="21" viewBox="0 0 26 21" fill="none" xmlns="http://www.w3.org/2000/svg">
<path d="M12.1695 5.68853L4.16732 12.4683V19.7856C4.16732 19.9751 4.24048 20.1568 4.37072 20.2908C4.50095 20.4247 4.67758 20.5 4.86176 20.5L9.72548 20.4871C9.90905 20.4861 10.0848 20.4104 10.2143 20.2766C10.3438 20.1427 10.4165 19.9615 10.4164 19.7727V15.4994C10.4164 15.31 10.4896 15.1283 10.6198 14.9943C10.7501 14.8603 10.9267 14.7851 11.1109 14.7851H13.8887C14.0728 14.7851 14.2495 14.8603 14.3797 14.9943C14.51 15.1283 14.5831 15.31 14.5831 15.4994V19.7696C14.5828 19.8636 14.6006 19.9567 14.6354 20.0436C14.6701 20.1306 14.7212 20.2096 14.7857 20.2761C14.8503 20.3427 14.9269 20.3955 15.0113 20.4316C15.0957 20.4676 15.1862 20.4862 15.2776 20.4862L20.1395 20.5C20.3237 20.5 20.5004 20.4247 20.6306 20.2908C20.7608 20.1568 20.834 19.9751 20.834 19.7856V12.4634L12.8335 5.68853C12.7395 5.61054 12.6223 5.56801 12.5015 5.56801C12.3807 5.56801 12.2635 5.61054 12.1695 5.68853ZM24.8097 10.2966L21.1812 7.21995V1.03577C21.1812 0.893678 21.1263 0.757402 21.0287 0.656925C20.931 0.556448 20.7985 0.5 20.6604 0.5H18.2298C18.0917 0.5 17.9592 0.556448 17.8615 0.656925C17.7639 0.757402 17.709 0.893678 17.709 1.03577V4.27765L13.8231 0.988894C13.4502 0.673224 12.9823 0.500631 12.4993 0.500631C12.0164 0.500631 11.5485 0.673224 11.1756 0.988894L0.189019 10.2966C0.136279 10.3415 0.0926449 10.3966 0.0606102 10.4588C0.0285755 10.521 0.00876769 10.589 0.00231864 10.6591C-0.0041304 10.7292 0.00290567 10.7999 0.0230248 10.8671C0.043144 10.9344 0.0759519 10.997 0.119574 11.0512L1.22634 12.4353C1.26985 12.4897 1.32336 12.5347 1.38381 12.5678C1.44426 12.601 1.51047 12.6215 1.57864 12.6282C1.64681 12.635 1.71561 12.6279 1.7811 12.6072C1.84659 12.5866 1.90748 12.5529 1.96029 12.508L12.1695 3.85796C12.2635 3.77998 12.3807 3.73745 12.5015 3.73745C12.6223 3.73745 12.7395 3.77998 12.8335 3.85796L23.0432 12.508C23.0959 12.5529 23.1567 12.5867 23.2221 12.6074C23.2875 12.6281 23.3562 12.6353 23.4243 12.6287C23.4924 12.622 23.5586 12.6016 23.6191 12.5687C23.6795 12.5357 23.7331 12.4909 23.7767 12.4366L24.8835 11.0525C24.927 10.998 24.9597 10.9351 24.9796 10.8675C24.9995 10.8 25.0062 10.729 24.9993 10.6588C24.9925 10.5886 24.9722 10.5204 24.9396 10.4582C24.9071 10.3961 24.8629 10.3412 24.8097 10.2966Z" fill="white"/>
</svg>
