<svg width="21" height="21" viewBox="0 0 21 21" fill="none" xmlns="http://www.w3.org/2000/svg">
<path d="M10.5 0.5C4.74563 0.5 0.0833321 4.97581 0.0833321 10.5C0.0833321 16.0242 4.74563 20.5 10.5 20.5C16.2544 20.5 20.9167 16.0242 20.9167 10.5C20.9167 4.97581 16.2544 0.5 10.5 0.5ZM10.5 4.37097C12.5413 4.37097 14.1962 5.95968 14.1962 7.91935C14.1962 9.87903 12.5413 11.4677 10.5 11.4677C8.45867 11.4677 6.80376 9.87903 6.80376 7.91935C6.80376 5.95968 8.45867 4.37097 10.5 4.37097ZM10.5 18.2419C8.03444 18.2419 5.8251 17.1694 4.3466 15.4919C5.13626 14.0645 6.68195 13.0806 8.48387 13.0806C8.58468 13.0806 8.68548 13.0968 8.78209 13.125C9.32812 13.2944 9.89936 13.4032 10.5 13.4032C11.1006 13.4032 11.6761 13.2944 12.2179 13.125C12.3145 13.0968 12.4153 13.0806 12.5161 13.0806C14.318 13.0806 15.8637 14.0645 16.6534 15.4919C15.1749 17.1694 12.9656 18.2419 10.5 18.2419Z" fill="white"/>
</svg>
